<svg width="235" height="235" viewBox="0 0 235 235" fill="none" xmlns="http://www.w3.org/2000/svg">
<path d="M234.186 0H0V234.186H40.9501L53.9245 210.265H186.668L199.642 234.186H234.186V0ZM93.9015 117.093C93.9015 133.473 80.6029 146.772 64.2228 146.772C47.8427 146.772 34.5441 133.473 34.5441 117.093C34.5441 100.713 47.8427 87.4144 64.2228 87.4144C80.6029 87.4144 93.9015 100.713 93.9015 117.093ZM146.772 117.093C146.772 100.713 160.07 87.4144 176.451 87.4144C192.831 87.4144 206.129 100.713 206.129 117.093C206.129 133.473 192.831 146.772 176.451 146.772C160.07 146.772 146.772 133.473 146.772 117.093ZM206.535 147.177L178.397 175.234L174.423 171.261L202.48 143.204C209.454 136.23 213.265 126.986 213.265 117.174C213.265 107.362 209.454 98.1182 202.48 91.1445C195.507 84.1708 186.262 80.2785 176.451 80.2785C166.639 80.2785 157.395 84.0897 150.421 91.0634L94.307 147.177C77.7647 163.719 50.762 163.719 34.1386 147.177C17.5964 130.635 17.5964 103.632 34.1386 87.0089L62.1956 58.952L66.169 62.9254L38.112 91.0634C23.7592 105.416 23.7592 128.77 38.112 143.204C52.4648 157.557 75.8186 157.557 90.2525 143.204L146.366 87.09C154.394 79.0622 165.098 74.6022 176.451 74.6022C187.803 74.6022 198.507 79.0622 206.535 87.09C214.563 95.1179 219.022 105.822 219.022 117.174C218.941 128.446 214.563 139.149 206.535 147.177Z"/>
<path d="M181.884 117.093C181.884 114.093 179.451 111.66 176.451 111.66C173.45 111.66 171.018 114.093 171.018 117.093C171.018 120.093 173.45 122.526 176.451 122.526C179.451 122.526 181.884 120.093 181.884 117.093Z"/>
<path d="M58.7898 117.093C58.7898 120.093 61.2225 122.526 64.2228 122.526C67.2231 122.526 69.6558 120.093 69.6558 117.093C69.6558 114.093 67.2231 111.66 64.2228 111.66C61.1414 111.66 58.7898 114.093 58.7898 117.093Z" />
</svg>
