<svg width="134" height="165" viewBox="0 0 134 165" fill="none" xmlns="http://www.w3.org/2000/svg">
<path d="M134 0H0V141.571H44.3875L48.2065 134.502H85.7935L89.6125 141.571H134V0ZM53.3655 105.558C53.3655 114 46.498 120.868 38.056 120.868C29.614 120.868 22.7465 114 22.7465 105.558C22.7465 97.1165 29.614 90.249 38.056 90.249C46.498 90.249 53.3655 97.1165 53.3655 105.558ZM80.6345 105.558C80.6345 97.1165 87.502 90.249 95.944 90.249C104.386 90.249 111.254 97.1165 111.254 105.558C111.254 114 104.386 120.868 95.944 120.868C87.502 120.868 80.6345 114.034 80.6345 105.558ZM111.622 121.236L97.15 135.708L94.7715 133.33L109.244 118.858C116.58 111.521 116.58 99.5955 109.244 92.2925C101.907 84.956 89.981 84.956 82.678 92.2925L53.734 121.236C45.091 129.879 31.0545 129.879 22.4115 121.236C13.7685 112.593 13.7685 98.557 22.4115 89.914L36.8835 75.442L39.262 77.8205L24.79 92.2925C17.4535 99.629 17.4535 111.555 24.79 118.858C32.1265 126.194 44.0525 126.194 51.3555 118.858L80.2995 89.914C88.9425 81.271 102.979 81.271 111.622 89.914C120.232 98.5235 120.232 112.593 111.622 121.236Z" fill="#16110F"/>
<path d="M95.9444 108.372C97.4985 108.372 98.7584 107.113 98.7584 105.558C98.7584 104.004 97.4985 102.744 95.9444 102.744C94.3902 102.744 93.1304 104.004 93.1304 105.558C93.1304 107.113 94.3902 108.372 95.9444 108.372Z" fill="#16110F"/>
<path d="M38.0557 108.372C39.6098 108.372 40.8697 107.113 40.8697 105.558C40.8697 104.004 39.6098 102.744 38.0557 102.744C36.5016 102.744 35.2417 104.004 35.2417 105.558C35.2417 107.113 36.5016 108.372 38.0557 108.372Z" fill="#16110F"/>
<path d="M21.1384 15.2425C21.1384 14.3715 21.3394 13.5675 21.7749 12.8975C22.2104 12.2275 22.7799 11.6915 23.5504 11.2895C24.2874 10.8875 25.1584 10.72 26.1299 10.72C27.3694 10.72 28.4079 11.0215 29.2789 11.591C30.1164 12.194 30.7529 13.065 31.1884 14.2375L28.8434 15.008C28.5754 14.3045 28.2404 13.802 27.8049 13.467C27.3694 13.1655 26.7999 12.998 26.0964 12.998C25.5939 12.998 25.1919 13.0985 24.8234 13.266C24.4549 13.4335 24.1869 13.7015 23.9859 14.003C23.7849 14.3045 23.6844 14.673 23.6844 15.1085C23.6844 15.678 23.8519 16.147 24.1869 16.5155C24.5219 16.884 25.0914 17.1855 25.8954 17.42L28.2739 18.157C29.1784 18.425 29.9154 18.7935 30.4849 19.229C31.0544 19.6645 31.4899 20.2005 31.7579 20.8035C32.0259 21.4065 32.1599 22.1435 32.1599 22.9475C32.1599 23.9525 31.8919 24.8235 31.3894 25.594C30.8869 26.3645 30.1834 26.934 29.2789 27.3695C28.3744 27.805 27.3024 28.006 26.0964 28.006C24.4884 28.006 23.1819 27.6375 22.1769 26.867C21.1719 26.13 20.4684 24.991 20.0664 23.45L22.4784 22.713C22.7464 23.718 23.1819 24.455 23.7514 24.924C24.3209 25.393 25.1249 25.6275 26.0964 25.6275C26.7999 25.6275 27.4029 25.527 27.9054 25.326C28.4079 25.125 28.8099 24.8235 29.0779 24.4215C29.3459 24.0195 29.4799 23.5505 29.4799 23.0145C29.4799 22.579 29.4129 22.2105 29.2454 21.8755C29.0779 21.574 28.8434 21.2725 28.5084 21.0715C28.1734 20.8705 27.7379 20.636 27.2019 20.4685L24.8569 19.7315C23.6174 19.3295 22.6794 18.76 22.0429 17.9895C21.4064 17.219 21.1384 16.3145 21.1384 15.2425Z" fill="#F6F2E7"/>
<path d="M32.3276 17.9561V15.5441H39.8651V17.9561H32.3276ZM36.9171 12.1606V23.8856C36.9171 24.3546 37.0176 24.6896 37.2521 24.9241C37.4531 25.1586 37.8216 25.2591 38.3241 25.2591H39.8986V27.6711H38.0226C36.8166 27.6711 35.8786 27.3696 35.2421 26.7331C34.6056 26.0966 34.2706 25.1251 34.2706 23.8186V12.1606H36.9171Z" fill="#F6F2E7"/>
<path d="M43.9183 16.1469C44.7223 15.5439 45.7273 15.2424 46.9668 15.2424C48.4408 15.2424 49.6468 15.6444 50.5513 16.4819C51.4558 17.3194 51.8913 18.5254 51.8913 20.0999V27.6709H49.7473L49.6803 26.0629H49.5798C49.3118 26.4649 49.0103 26.7999 48.6083 27.0679C48.2063 27.3359 47.7373 27.5369 47.2348 27.6709C46.7323 27.8049 46.1628 27.8719 45.5598 27.8719C44.2198 27.8719 43.1478 27.5369 42.3773 26.8334C41.6068 26.1299 41.2383 25.2254 41.2383 24.0529C41.2383 22.9139 41.6403 22.0094 42.4108 21.3059C43.1813 20.6024 44.2868 20.2674 45.7273 20.2674H49.3118V19.8989C49.3118 19.0949 49.0773 18.4919 48.6418 18.1234C48.2063 17.7549 47.6033 17.5539 46.8998 17.5539C46.2298 17.5539 45.6938 17.6879 45.3253 17.9894C44.9233 18.2909 44.6218 18.6929 44.3873 19.2624L42.1763 18.4919C42.5783 17.5204 43.1478 16.7499 43.9183 16.1469ZM47.4023 25.4599C47.8043 25.3259 48.1728 25.1584 48.4408 24.8904C48.7423 24.6224 48.9768 24.3209 49.1443 23.9524C49.3118 23.5839 49.3788 23.1484 49.3788 22.6459V22.1769H46.0958C45.3253 22.1769 44.7558 22.3444 44.4208 22.6459C44.0858 22.9474 43.8848 23.3829 43.8848 23.9189C43.8848 24.4549 44.0523 24.8569 44.4208 25.1584C44.7558 25.4599 45.3253 25.6274 46.0623 25.6274C46.5313 25.6274 46.9668 25.5939 47.4023 25.4599Z" fill="#F6F2E7"/>
<path d="M56.7827 27.671H54.1362V15.544H56.1797L56.3137 17.152H56.4142C56.6152 16.75 56.9167 16.415 57.2517 16.1135C57.5867 15.812 57.9887 15.611 58.4912 15.4435C58.9937 15.276 59.4962 15.209 60.0992 15.209C61.6067 15.209 62.7792 15.678 63.6167 16.5825C64.4542 17.487 64.8562 18.7935 64.8562 20.435V27.671H62.2097V20.636C62.2097 19.564 61.9752 18.7935 61.4727 18.291C60.9702 17.7885 60.3337 17.5205 59.4962 17.5205C59.0942 17.5205 58.7257 17.5875 58.3907 17.688C58.0557 17.822 57.7877 17.9895 57.5197 18.2575C57.2852 18.5255 57.0842 18.827 56.9837 19.229C56.8832 19.631 56.7827 20.1 56.7827 20.636V27.671Z" fill="#F6F2E7"/>
<path d="M76.2461 11.0215H78.8926V27.671H76.5141L76.4471 25.795H76.3801C76.1456 26.264 75.8441 26.6325 75.4421 26.9675C75.0401 27.3025 74.6046 27.537 74.0686 27.7045C73.5661 27.872 72.9631 27.9725 72.2931 27.9725C71.2881 27.9725 70.3501 27.738 69.5126 27.2355C68.6751 26.733 68.0051 25.996 67.5026 25.058C67.0001 24.12 66.7656 22.981 66.7656 21.6075C66.7656 20.2675 67.0001 19.1285 67.5026 18.1905C68.0051 17.2525 68.6751 16.549 69.5126 16.0465C70.3501 15.544 71.2881 15.3095 72.3266 15.3095C72.9296 15.3095 73.4656 15.3765 73.9681 15.5105C74.4371 15.6445 74.8726 15.8455 75.2411 16.08C75.6096 16.3145 75.9111 16.616 76.1791 16.9845H76.2796V15.544V11.0215H76.2461ZM72.8961 17.5875C72.2261 17.5875 71.6566 17.755 71.1541 18.0565C70.6516 18.3915 70.2496 18.827 69.9481 19.43C69.6466 20.033 69.5126 20.7365 69.5126 21.574C69.5126 22.4115 69.6466 23.115 69.9481 23.718C70.2496 24.321 70.6516 24.7565 71.1541 25.0915C71.6566 25.4265 72.2261 25.5605 72.8961 25.5605C73.3651 25.5605 73.8341 25.46 74.2361 25.2925C74.6381 25.125 75.0066 24.857 75.3081 24.522C75.6096 24.187 75.8441 23.7515 76.0116 23.2825C76.1791 22.8135 76.2796 22.244 76.2796 21.641V21.5405C76.2796 20.904 76.1791 20.3345 76.0116 19.8655C75.8441 19.363 75.6096 18.961 75.2746 18.626C74.9731 18.291 74.6046 18.023 74.2026 17.8555C73.8006 17.688 73.3651 17.5875 72.8961 17.5875Z" fill="#F6F2E7"/>
<path d="M83.3148 16.1469C84.1188 15.5439 85.1238 15.2424 86.3633 15.2424C87.8373 15.2424 89.0433 15.6444 89.9478 16.4819C90.8523 17.3194 91.2878 18.5254 91.2878 20.0999V27.6709H89.1438L89.0768 26.0629H88.9763C88.7083 26.4649 88.4068 26.7999 88.0048 27.0679C87.6028 27.3359 87.1338 27.5369 86.6313 27.6709C86.1288 27.8049 85.5593 27.8719 84.9563 27.8719C83.6163 27.8719 82.5443 27.5369 81.7738 26.8334C81.0033 26.1299 80.6348 25.2254 80.6348 24.0529C80.6348 22.9139 81.0368 22.0094 81.8073 21.3059C82.5778 20.6024 83.6833 20.2674 85.1238 20.2674H88.7753V19.8989C88.7753 19.0949 88.5408 18.4919 88.1053 18.1234C87.6698 17.7549 87.0668 17.5539 86.3633 17.5539C85.6933 17.5539 85.1573 17.6879 84.7888 17.9894C84.3868 18.2909 84.0853 18.6929 83.8508 19.2624L81.6398 18.4919C81.9413 17.5204 82.5443 16.7499 83.3148 16.1469ZM86.7653 25.4599C87.1673 25.3259 87.5358 25.1584 87.8038 24.8904C88.1053 24.6224 88.3398 24.3209 88.5073 23.9524C88.6748 23.5839 88.7418 23.1484 88.7418 22.6459V22.1769H85.4588C84.6883 22.1769 84.1188 22.3444 83.7838 22.6459C83.4488 22.9474 83.2478 23.3829 83.2478 23.9189C83.2478 24.4549 83.4153 24.8569 83.7838 25.1584C84.1188 25.4599 84.6883 25.6274 85.4253 25.6274C85.9278 25.6274 86.3633 25.5939 86.7653 25.4599Z" fill="#F6F2E7"/>
<path d="M96.1782 27.6708H93.5317V15.5438H95.6757L95.8432 17.5203H95.9102C96.1782 16.7833 96.6137 16.2138 97.1497 15.8453C97.6857 15.4768 98.3222 15.3093 99.0592 15.3093H100.299V17.9223H99.0257C98.5902 17.9223 98.1882 17.9893 97.8197 18.0898C97.4512 18.1903 97.1497 18.3913 96.9152 18.6258C96.6807 18.8603 96.4797 19.1618 96.3457 19.5303C96.2117 19.8988 96.1447 20.3343 96.1447 20.8703V27.6708H96.1782Z" fill="#F6F2E7"/>
<path d="M110.584 11.0215H113.23V27.671H110.885L110.818 25.795H110.718C110.483 26.264 110.182 26.6325 109.78 26.9675C109.378 27.3025 108.942 27.537 108.406 27.7045C107.904 27.872 107.301 27.9725 106.631 27.9725C105.626 27.9725 104.688 27.738 103.85 27.2355C103.013 26.733 102.343 25.996 101.84 25.058C101.338 24.12 101.103 22.981 101.103 21.6075C101.103 20.2675 101.338 19.1285 101.84 18.1905C102.343 17.2525 103.013 16.549 103.85 16.0465C104.688 15.544 105.626 15.3095 106.664 15.3095C107.267 15.3095 107.803 15.3765 108.306 15.5105C108.775 15.6445 109.21 15.8455 109.579 16.08C109.947 16.3145 110.249 16.616 110.517 16.9845H110.617V15.544V11.0215H110.584ZM107.234 17.5875C106.564 17.5875 105.994 17.755 105.492 18.0565C104.989 18.3915 104.587 18.827 104.286 19.43C103.984 20.033 103.85 20.77 103.85 21.574C103.85 22.4115 103.984 23.115 104.286 23.718C104.587 24.321 104.989 24.7565 105.492 25.0915C105.994 25.4265 106.564 25.5605 107.234 25.5605C107.703 25.5605 108.172 25.46 108.574 25.2925C108.976 25.125 109.344 24.857 109.646 24.522C109.947 24.187 110.182 23.7515 110.349 23.2825C110.517 22.8135 110.617 22.244 110.617 21.641V21.5405C110.617 20.904 110.517 20.3345 110.349 19.8655C110.182 19.363 109.947 18.961 109.612 18.626C109.311 18.291 108.942 18.023 108.54 17.8555C108.138 17.688 107.703 17.5875 107.234 17.5875Z" fill="#F6F2E7"/>
<path d="M14.74 162.074L11.457 153.431L11.926 153.531H10.9545L11.4235 153.431L8.10698 162.074H6.06348L10.787 150.148H12.0935L16.7835 162.074H14.74ZM7.77198 159.829L8.44198 158.087H14.3715L15.0415 159.829H7.77198Z" fill="#16110F"/>
<path d="M23.4498 153.396H25.3258V162.073H23.8518L23.7513 160.934H23.6843C23.5168 161.202 23.3158 161.47 23.0813 161.671C22.8468 161.872 22.5453 162.039 22.2103 162.14C21.8753 162.24 21.5068 162.307 21.0713 162.307C19.9993 162.307 19.1618 161.972 18.5588 161.336C17.9558 160.699 17.6543 159.761 17.6543 158.589V153.43H19.5303V158.455C19.5303 159.225 19.6978 159.795 20.0328 160.13C20.3678 160.465 20.8368 160.666 21.4398 160.666C21.7413 160.666 22.0093 160.632 22.2438 160.532C22.4783 160.431 22.6793 160.297 22.8468 160.13C23.0143 159.962 23.1483 159.728 23.2488 159.426C23.3493 159.158 23.3828 158.823 23.3828 158.421V153.396H23.4498Z" fill="#16110F"/>
<path d="M33.6003 150.18H35.5098V162.073H33.8013L33.7343 160.733H33.6673C33.4998 161.068 33.2653 161.336 32.9973 161.57C32.7293 161.805 32.3943 161.972 32.0258 162.106C31.6573 162.24 31.2218 162.274 30.7528 162.274C30.0158 162.274 29.3793 162.106 28.7763 161.738C28.1733 161.369 27.7043 160.867 27.3358 160.197C26.9673 159.527 26.7998 158.689 26.7998 157.751C26.7998 156.78 26.9673 155.976 27.3358 155.306C27.7043 154.636 28.1733 154.133 28.7763 153.765C29.3793 153.396 30.0493 153.229 30.7863 153.229C31.2218 153.229 31.6238 153.262 31.9588 153.363C32.2938 153.463 32.5953 153.597 32.8633 153.765C33.1313 153.932 33.3658 154.167 33.5333 154.401H33.6003V153.363V150.18ZM31.1883 154.904C30.7193 154.904 30.2838 155.004 29.9488 155.239C29.5803 155.473 29.3123 155.808 29.1113 156.21C28.9103 156.646 28.8098 157.148 28.8098 157.751C28.8098 158.354 28.9103 158.857 29.1113 159.259C29.3123 159.694 29.6138 159.996 29.9823 160.23C30.3508 160.465 30.7528 160.565 31.2218 160.565C31.5568 160.565 31.8918 160.498 32.1933 160.364C32.4948 160.23 32.7628 160.063 32.9638 159.795C33.1648 159.527 33.3658 159.259 33.4663 158.924C33.6003 158.589 33.6338 158.187 33.6338 157.751V157.684C33.6338 157.215 33.5668 156.847 33.4663 156.478C33.3658 156.11 33.1648 155.842 32.9638 155.607C32.7628 155.373 32.4948 155.172 32.1933 155.071C31.8918 154.971 31.5233 154.904 31.1883 154.904Z" fill="#16110F"/>
<path d="M37.0508 150.18H39.1948V152.056H37.0508V150.18ZM39.0608 153.396H37.1848V162.073H39.0608V153.396Z" fill="#16110F"/>
<path d="M42.6791 161.738C41.9756 161.336 41.4396 160.8 41.0376 160.096C40.6356 159.393 40.4346 158.622 40.4346 157.718C40.4346 156.847 40.6356 156.043 41.0376 155.339C41.4396 154.636 41.9756 154.1 42.6791 153.698C43.3826 153.296 44.1866 153.095 45.0911 153.095C45.9956 153.095 46.7996 153.296 47.5031 153.698C48.2066 154.1 48.7426 154.636 49.1446 155.339C49.5466 156.043 49.7476 156.813 49.7476 157.718C49.7476 158.622 49.5466 159.393 49.1446 160.096C48.7426 160.8 48.2066 161.336 47.5031 161.738C46.7996 162.14 45.9956 162.341 45.0911 162.341C44.1866 162.341 43.3491 162.14 42.6791 161.738ZM46.5316 160.23C46.9336 159.996 47.2686 159.661 47.4696 159.225C47.6706 158.79 47.8046 158.321 47.8046 157.785C47.8046 157.249 47.7041 156.746 47.4696 156.311C47.2351 155.875 46.9336 155.54 46.5316 155.306C46.1296 155.071 45.6271 154.937 45.0911 154.937C44.5551 154.937 44.0526 155.071 43.6506 155.306C43.2486 155.54 42.9136 155.909 42.7126 156.311C42.4781 156.746 42.3776 157.215 42.3776 157.785C42.3776 158.354 42.4781 158.823 42.7126 159.225C42.9471 159.627 43.2486 159.996 43.6506 160.23C44.0526 160.465 44.5551 160.599 45.0911 160.599C45.6271 160.599 46.1296 160.465 46.5316 160.23Z" fill="#16110F"/>
<path d="M54.9736 156.144C54.9736 154.904 55.2081 153.799 55.7106 152.894C56.2131 151.956 56.9166 151.253 57.8211 150.717C58.7256 150.214 59.7641 149.946 60.9701 149.946C61.9751 149.946 62.8461 150.114 63.5831 150.449C64.3201 150.784 64.9231 151.253 65.4256 151.856C65.8946 152.459 66.2631 153.162 66.4976 153.966L64.6216 154.502C64.3536 153.665 63.9516 153.028 63.3486 152.526C62.7456 152.057 61.9751 151.822 61.0371 151.822C60.2331 151.822 59.4961 151.99 58.9266 152.358C58.3571 152.727 57.8546 153.229 57.5531 153.899C57.2181 154.536 57.0506 155.306 57.0506 156.177C57.0506 157.048 57.2181 157.785 57.5531 158.455C57.8881 159.092 58.3236 159.628 58.9266 159.996C59.5296 160.365 60.2331 160.532 61.0371 160.532C61.8746 160.532 62.6116 160.298 63.2816 159.862C63.9516 159.427 64.3871 158.757 64.6886 157.852L66.5646 158.355C66.3301 159.125 65.9616 159.795 65.4926 160.398C65.0236 161.001 64.4206 161.504 63.6836 161.839C62.9466 162.174 62.0421 162.375 61.0036 162.375C59.7976 162.375 58.7591 162.107 57.8546 161.604C56.9501 161.102 56.2466 160.365 55.7441 159.427C55.2416 158.489 54.9736 157.383 54.9736 156.144Z" fill="#16110F"/>
<path d="M69.6464 161.738C68.9429 161.336 68.4069 160.8 68.0049 160.096C67.6029 159.393 67.4019 158.622 67.4019 157.718C67.4019 156.847 67.6029 156.043 68.0049 155.339C68.4069 154.636 68.9429 154.1 69.6464 153.698C70.3499 153.296 71.1539 153.095 72.0584 153.095C72.9629 153.095 73.7669 153.296 74.4704 153.698C75.1739 154.1 75.7099 154.636 76.1119 155.339C76.5139 156.043 76.7149 156.813 76.7149 157.718C76.7149 158.622 76.5139 159.393 76.1119 160.096C75.7099 160.8 75.1739 161.336 74.4704 161.738C73.7669 162.14 72.9629 162.341 72.0584 162.341C71.1539 162.341 70.3499 162.14 69.6464 161.738ZM73.4989 160.23C73.9009 159.996 74.2359 159.661 74.4369 159.225C74.6379 158.79 74.7719 158.321 74.7719 157.785C74.7719 157.249 74.6714 156.746 74.4369 156.311C74.2024 155.875 73.9009 155.54 73.4989 155.306C73.0969 155.071 72.5944 154.937 72.0584 154.937C71.5224 154.937 71.0199 155.071 70.6179 155.306C70.2159 155.54 69.8809 155.909 69.6799 156.311C69.4454 156.746 69.3449 157.215 69.3449 157.785C69.3449 158.354 69.4454 158.823 69.6799 159.225C69.9144 159.627 70.2159 159.996 70.6179 160.23C71.0199 160.465 71.5224 160.599 72.0584 160.599C72.5944 160.599 73.0969 160.465 73.4989 160.23Z" fill="#16110F"/>
<path d="M79.9312 162.073H78.0552V153.397H79.4957L79.5962 154.536H79.6632C79.8307 154.234 80.0317 154 80.2662 153.765C80.5007 153.531 80.7687 153.397 81.1037 153.296C81.4387 153.196 81.7737 153.129 82.1757 153.129C82.7787 153.129 83.3147 153.263 83.7837 153.497C84.2527 153.732 84.5877 154.1 84.8557 154.569H84.9227C85.0902 154.268 85.2912 154.033 85.5257 153.799C85.7602 153.598 86.0617 153.43 86.3967 153.296C86.7317 153.196 87.1337 153.129 87.5692 153.129C88.6077 153.129 89.4452 153.43 90.0147 154.067C90.5842 154.703 90.8522 155.574 90.8522 156.713V162.006H88.9762V156.847C88.9762 156.144 88.8087 155.608 88.5072 155.273C88.1722 154.938 87.7367 154.77 87.2007 154.77C86.9327 154.77 86.6982 154.804 86.4637 154.904C86.2292 155.005 86.0617 155.105 85.8942 155.273C85.7267 155.44 85.6262 155.675 85.5257 155.943C85.4252 156.211 85.3917 156.512 85.3917 156.881V162.04H83.5157V156.881C83.5157 156.177 83.3482 155.641 83.0467 155.306C82.7117 154.971 82.2762 154.804 81.7402 154.804C81.4722 154.804 81.2377 154.837 81.0032 154.938C80.7687 155.038 80.6012 155.139 80.4337 155.306C80.2662 155.474 80.1657 155.708 80.0652 155.976C79.9647 156.244 79.9312 156.546 79.9312 156.914V162.073Z" fill="#16110F"/>
<path d="M94.3695 164.988H92.46V153.397H94.135L94.202 154.737H94.269C94.4365 154.402 94.671 154.134 94.939 153.899C95.207 153.665 95.542 153.497 95.9105 153.363C96.279 153.229 96.7145 153.196 97.15 153.196C97.887 153.196 98.557 153.363 99.16 153.732C99.763 154.1 100.232 154.603 100.6 155.273C100.969 155.943 101.136 156.78 101.136 157.718C101.136 158.656 100.969 159.494 100.6 160.164C100.232 160.834 99.763 161.336 99.16 161.705C98.557 162.04 97.887 162.241 97.15 162.241C96.7145 162.241 96.3125 162.207 95.9775 162.107C95.6425 162.006 95.341 161.872 95.073 161.671C94.805 161.504 94.604 161.269 94.403 161.035H94.336V162.073V164.988H94.3695ZM96.748 160.599C97.217 160.599 97.6525 160.499 97.9875 160.264C98.356 160.03 98.624 159.695 98.825 159.293C99.026 158.891 99.1265 158.355 99.1265 157.785C99.1265 157.182 99.026 156.68 98.825 156.244C98.624 155.809 98.3225 155.507 97.954 155.273C97.5855 155.038 97.1835 154.938 96.7145 154.938C96.3795 154.938 96.0445 155.005 95.743 155.139C95.4415 155.273 95.207 155.44 94.9725 155.708C94.738 155.976 94.5705 156.244 94.47 156.579C94.336 156.914 94.3025 157.316 94.3025 157.752V157.819C94.3025 158.288 94.3695 158.656 94.47 159.025C94.5705 159.393 94.7715 159.661 94.9725 159.896C95.1735 160.13 95.4415 160.331 95.743 160.432C96.0445 160.532 96.413 160.599 96.748 160.599Z" fill="#16110F"/>
<path d="M104.051 153.832C104.62 153.397 105.357 153.196 106.228 153.196C107.3 153.196 108.138 153.497 108.808 154.067C109.444 154.67 109.779 155.507 109.779 156.646V162.04H108.238L108.205 160.901H108.138C107.97 161.202 107.736 161.437 107.434 161.638C107.133 161.839 106.831 161.973 106.463 162.073C106.094 162.174 105.692 162.207 105.257 162.207C104.285 162.207 103.548 161.973 102.979 161.47C102.443 160.968 102.175 160.298 102.175 159.494C102.175 158.69 102.443 158.02 103.012 157.517C103.582 157.015 104.352 156.78 105.391 156.78H107.937V156.512C107.937 155.943 107.769 155.507 107.468 155.239C107.133 154.971 106.731 154.837 106.228 154.837C105.759 154.837 105.391 154.938 105.089 155.139C104.788 155.34 104.587 155.641 104.419 156.043L102.845 155.507C103.079 154.837 103.481 154.268 104.051 153.832ZM106.53 160.499C106.831 160.398 107.066 160.264 107.267 160.097C107.468 159.929 107.635 159.695 107.769 159.427C107.87 159.159 107.937 158.857 107.937 158.489V158.154H105.592C105.022 158.154 104.62 158.254 104.386 158.489C104.151 158.723 104.017 159.025 104.017 159.393C104.017 159.762 104.151 160.063 104.386 160.298C104.62 160.532 105.022 160.633 105.558 160.633C105.893 160.633 106.228 160.599 106.53 160.499Z" fill="#16110F"/>
<path d="M113.23 162.073H111.354V153.397H112.795L112.895 154.536H112.962C113.13 154.268 113.297 154 113.565 153.799C113.833 153.598 114.101 153.43 114.436 153.33C114.771 153.229 115.173 153.162 115.575 153.162C116.647 153.162 117.485 153.497 118.088 154.134C118.691 154.77 118.992 155.708 118.992 156.881V162.04H117.116V157.015C117.116 156.244 116.949 155.675 116.614 155.34C116.279 155.005 115.81 154.804 115.207 154.804C114.905 154.804 114.637 154.837 114.403 154.938C114.168 155.038 113.967 155.172 113.8 155.34C113.632 155.507 113.498 155.742 113.398 156.043C113.297 156.311 113.264 156.646 113.264 157.048V162.073H113.23Z" fill="#16110F"/>
<path d="M121.437 164.988H119.997V163.279H121.437C121.739 163.279 121.973 163.246 122.141 163.145C122.308 163.045 122.442 162.944 122.543 162.743L122.643 162.475C122.71 162.375 122.71 162.241 122.71 162.107C122.71 161.973 122.677 161.805 122.61 161.638L119.36 153.363H121.471L123.782 159.795L123.514 159.594H123.95L123.682 159.795L125.792 153.33H127.802L124.452 162.643C124.251 163.246 124.017 163.715 123.749 164.05C123.481 164.385 123.146 164.619 122.777 164.753C122.409 164.887 122.007 164.988 121.437 164.988Z" fill="#16110F"/>
</svg>
